<svg xmlns="http://www.w3.org/2000/svg" xmlns:xlink="http://www.w3.org/1999/xlink" width="1080" zoomAndPan="magnify" viewBox="0 0 810 809.999993" height="1080" preserveAspectRatio="xMidYMid meet" version="1.0"><path fill="#0795ff" d="M 51.152344 670.519531 L 299.109375 719.589844 L 299.109375 421.804688 L 31.820312 421.804688 L 31.820312 647.832031 C 31.816406 649.1875 31.929688 650.535156 32.164062 651.871094 C 32.394531 653.207031 32.746094 654.511719 33.210938 655.785156 C 33.675781 657.058594 34.25 658.28125 34.933594 659.453125 C 35.617188 660.625 36.398438 661.726562 37.28125 662.757812 C 38.160156 663.789062 39.125 664.738281 40.171875 665.597656 C 41.21875 666.460938 42.335938 667.21875 43.519531 667.882812 C 44.703125 668.546875 45.9375 669.097656 47.21875 669.539062 C 48.5 669.984375 49.8125 670.308594 51.152344 670.519531 Z M 51.152344 670.519531 " fill-opacity="1" fill-rule="nonzero"/><path fill="#156cdd" d="M 31.820312 388.195312 L 299.109375 388.195312 L 299.109375 90.242188 L 51.152344 139.480469 C 49.8125 139.691406 48.5 140.015625 47.21875 140.460938 C 45.9375 140.902344 44.703125 141.453125 43.519531 142.117188 C 42.335938 142.777344 41.21875 143.539062 40.171875 144.402344 C 39.125 145.261719 38.160156 146.210938 37.28125 147.242188 C 36.398438 148.273438 35.617188 149.375 34.933594 150.546875 C 34.25 151.71875 33.675781 152.941406 33.210938 154.214844 C 32.746094 155.488281 32.394531 156.792969 32.164062 158.128906 C 31.929688 159.464844 31.816406 160.8125 31.820312 162.167969 Z M 31.820312 388.195312 " fill-opacity="1" fill-rule="nonzero"/><path fill="#0795ff" d="M 340.800781 388.195312 L 771.484375 388.195312 L 771.484375 25.207031 C 771.519531 24.324219 771.503906 23.441406 771.4375 22.558594 C 771.371094 21.675781 771.253906 20.800781 771.085938 19.929688 C 770.917969 19.0625 770.703125 18.207031 770.4375 17.363281 C 770.171875 16.519531 769.859375 15.691406 769.5 14.882812 C 769.140625 14.074219 768.734375 13.289062 768.285156 12.527344 C 767.835938 11.765625 767.34375 11.03125 766.808594 10.328125 C 766.273438 9.621094 765.703125 8.949219 765.09375 8.308594 C 764.480469 7.667969 763.835938 7.0625 763.15625 6.496094 C 762.476562 5.929688 761.765625 5.40625 761.027344 4.917969 C 760.285156 4.433594 759.519531 3.992188 758.730469 3.59375 C 757.9375 3.199219 757.128906 2.847656 756.296875 2.542969 C 755.464844 2.238281 754.621094 1.980469 753.761719 1.773438 C 752.898438 1.566406 752.03125 1.40625 751.152344 1.296875 C 750.273438 1.1875 749.394531 1.128906 748.507812 1.121094 C 747.621094 1.113281 746.738281 1.15625 745.859375 1.25 C 744.980469 1.34375 744.109375 1.488281 743.242188 1.679688 L 340.800781 82.007812 Z M 340.800781 388.195312 " fill-opacity="1" fill-rule="nonzero"/><path fill="#156cdd" d="M 340.800781 727.992188 L 743.242188 808.320312 C 744.109375 808.511719 744.980469 808.65625 745.859375 808.75 C 746.738281 808.84375 747.621094 808.882812 748.507812 808.875 C 749.390625 808.871094 750.273438 808.8125 751.152344 808.703125 C 752.03125 808.59375 752.898438 808.433594 753.761719 808.226562 C 754.621094 808.019531 755.464844 807.761719 756.296875 807.457031 C 757.128906 807.152344 757.9375 806.800781 758.730469 806.402344 C 759.519531 806.007812 760.285156 805.566406 761.027344 805.082031 C 761.765625 804.59375 762.476562 804.070312 763.15625 803.503906 C 763.835938 802.9375 764.480469 802.332031 765.09375 801.691406 C 765.703125 801.050781 766.273438 800.378906 766.808594 799.671875 C 767.34375 798.96875 767.835938 798.234375 768.285156 797.472656 C 768.734375 796.710938 769.140625 795.925781 769.5 795.117188 C 769.859375 794.308594 770.171875 793.480469 770.4375 792.636719 C 770.703125 791.792969 770.917969 790.9375 771.085938 790.070312 C 771.253906 789.199219 771.371094 788.324219 771.4375 787.441406 C 771.503906 786.558594 771.519531 785.675781 771.484375 784.792969 L 771.484375 421.804688 L 340.800781 421.804688 Z M 340.800781 727.992188 " fill-opacity="1" fill-rule="nonzero"/></svg>